<?xml version="1.0" encoding="UTF-8"?>
<svg width="500" height="94.727" enable-background="new 0 0 1000 189.449" version="1.1" viewBox="0 0 500 94.727" xml:space="preserve" xmlns="http://www.w3.org/2000/svg">
<title>IMAX logo (blue)</title>
<g transform="scale(.5)" clip-rule="evenodd" fill-rule="evenodd" style="fill:white">
	<polygon points="277.01 189.29 343.84 52.836 354.71 52.836 354.7 189.45 408.06 189.45 408.06 0.573 311.94 0.573 254.98 113.51 197.48 0.723 101.79 1.021 101.65 189.45 154.9 189.45 154.97 52.836 165.65 52.836 232.45 189.29" style="fill:white"/>
	<polygon points="0 189.44 59.759 189.44 59.759 0.573 0 0.573" style="fill:white"/>
	<path d="m514.56 0.573-95.994 188.88h63.844l16.703-32.123h119.29l16.273 32.123h63.998l-96.046-188.88h-88.069zm47.089 42.935h-5.876l-36.339 71.533h78.149z" style="fill:white"/>
	<polygon points="779.99 189.45 840.14 121.2 899.62 189.45 978.43 189.45 889.55 89.133 963.98 0.573 891.13 0.573 839.64 61.938 789.63 0.573 715.46 0.573 790.32 89.218 700.93 189.45" style="fill:white"/>
	<path d="m1e3 14.378c0 7.939-6.439 14.384-14.377 14.384-7.94 0-14.38-6.445-14.38-14.384 0-7.928 6.449-14.378 14.38-14.378 7.937 0 14.377 6.45 14.377 14.378zm-2.47 0c0-6.577-5.33-11.898-11.907-11.898-6.57 0-11.909 5.326-11.909 11.898 0 6.579 5.339 11.904 11.909 11.904 6.577 1e-3 11.907-5.324 11.907-11.904zm-10.815-5.41h-4.202v5.277h4.279c0.525 0 0.93-0.042 1.206-0.128 0.283-0.082 0.56-0.228 0.758-0.47 0.31-0.357 0.438-1.059 0.438-2.122 0-0.982-0.111-1.658-0.354-1.998-0.18-0.25-0.465-0.392-0.8-0.458-0.334-0.067-0.783-0.101-1.325-0.101zm0.526-2.557c2.023 0 3.383 0.395 4.098 1.183 0.638 0.701 0.948 1.856 0.948 3.448 0 1.735-0.242 2.863-0.689 3.41-0.422 0.5-0.957 0.844-1.938 1.021v0.061c0.922 0.09 1.506 0.361 1.938 0.934 0.413 0.561 0.56 1.481 0.56 2.644v2.772h-3.091v-2.165c0-0.539-0.026-0.995-0.077-1.348-0.053-0.353-0.189-0.654-0.397-0.892-0.215-0.236-0.473-0.395-0.758-0.465-0.293-0.068-0.68-0.102-1.162-0.102h-4.159v4.972h-2.996l0.034-15.472h7.689z" style="fill:white"/>
</g>
</svg>
