<?xml version="1.0" encoding="UTF-8" standalone="no"?>
<!-- Created with Inkscape (http://www.inkscape.org/) -->

<svg
   xmlns:dc="http://purl.org/dc/elements/1.1/"
   xmlns:cc="http://creativecommons.org/ns#"
   xmlns:rdf="http://www.w3.org/1999/02/22-rdf-syntax-ns#"
   xmlns:svg="http://www.w3.org/2000/svg"
   xmlns="http://www.w3.org/2000/svg"
   xmlns:sodipodi="http://sodipodi.sourceforge.net/DTD/sodipodi-0.dtd"
   xmlns:inkscape="http://www.inkscape.org/namespaces/inkscape"
   width="264.58334mm"
   height="180.03014mm"
   viewBox="0 0 264.58334 180.03014"
   version="1.1"
   id="svg2170"
   inkscape:version="0.92.4 (5da689c313, 2019-01-14)"
   sodipodi:docname="McDonald's old logo.svg">
  <defs
     id="defs2164">
    <clipPath
       clipPathUnits="userSpaceOnUse"
       id="clipPath1023">
      <path
         d="M 458.17,423 H 576 V 330.55 H 458.17 Z"
         id="path1021"
         inkscape:connector-curvature="0"
         style="clip-rule:evenodd" />
    </clipPath>
  </defs>
  <sodipodi:namedview
     id="base"
     pagecolor="#ffffff"
     bordercolor="#666666"
     borderopacity="1.0"
     inkscape:pageopacity="0.0"
     inkscape:pageshadow="2"
     inkscape:zoom="1"
     inkscape:cx="724.22008"
     inkscape:cy="268.75244"
     inkscape:document-units="mm"
     inkscape:current-layer="layer1"
     showgrid="false"
     fit-margin-top="0"
     fit-margin-left="0"
     fit-margin-right="0"
     fit-margin-bottom="0"
     inkscape:window-width="1920"
     inkscape:window-height="1001"
     inkscape:window-x="-9"
     inkscape:window-y="-9"
     inkscape:window-maximized="1" />
  <metadata
     id="metadata2167">
    <rdf:RDF>
      <cc:Work
         rdf:about="">
        <dc:format>image/svg+xml</dc:format>
        <dc:type
           rdf:resource="http://purl.org/dc/dcmitype/StillImage" />
        <dc:title></dc:title>
      </cc:Work>
    </rdf:RDF>
  </metadata>
  <g
     inkscape:label="Layer 1"
     inkscape:groupmode="layer"
     id="layer1"
     transform="translate(-319.41474,17.824465)">
    <g
       id="g2768"
       transform="matrix(6.3712658,0,0,6.3712658,-1715.6617,-871.24977)">
      <g
         id="g1017"
         transform="matrix(0.35277777,0,0,-0.35277777,157.7653,281.01416)">
        <g
           clip-path="url(#clipPath1023)"
           id="g1019">
          <path
             inkscape:connector-curvature="0"
             id="path1025"
             style="fill:white;fill-opacity:1;fill-rule:nonzero;stroke:none"
             d="m 541.77,365.032 c -1.08,8.658 -2.223,16.403 -2.906,19.506 -1.273,5.774 -11.606,56.835 -23.421,1.258 -1.193,-5.61 -1.976,-13.335 -2.489,-20.764 h -12.439 c -0.512,7.429 -1.296,15.154 -2.488,20.764 -11.815,55.577 -22.292,4.516 -23.564,-1.258 -1.488,-6.749 -5.148,-35.461 -5.606,-47.758 h -10.638 c 0.458,17.559 7.092,45.127 10.753,55.765 3.002,8.724 17.061,43.056 30.427,10.753 1.373,-3.318 6.606,-17.96 7.293,-24.937 0.686,6.977 5.862,21.619 7.235,24.937 13.367,32.303 27.426,-2.029 30.427,-10.753 2.049,-5.955 4.779,-16.048 6.846,-27.513 h -9.43" />
        </g>
      </g>
      <path
         inkscape:connector-curvature="0"
         id="path1027"
         style="fill:white;fill-opacity:1;fill-rule:nonzero;stroke:none;stroke-width:0.35277775"
         d="m 352.98088,157.56417 c 0.16192,1.55363 0.26634,3.11608 0.29104,4.6415 h -3.43006 c -0.0448,-1.1998 -0.17568,-2.84234 -0.35313,-4.6415 h 3.49215" />
      <path
         inkscape:connector-curvature="0"
         id="path1029"
         style="fill:white;fill-opacity:1;fill-rule:nonzero;stroke:none;stroke-width:0.35277775"
         d="m 338.60095,157.56417 c -0.0554,1.68733 -0.0684,2.84797 -0.0684,2.96686 h -3.86397 c 0,-0.11889 -0.0127,-1.27953 -0.0681,-2.96686 h 4.0005" />
      <path
         inkscape:connector-curvature="0"
         id="path1031"
         style="fill:white;fill-opacity:1;fill-rule:nonzero;stroke:none;stroke-width:0.35277775"
         d="m 332.84856,154.76523 c -0.006,-0.15452 -0.0557,-0.3489 -0.13653,-0.43603 -0.0804,-0.0942 -0.17709,-0.14112 -0.33478,-0.14112 -0.48366,0 -0.5641,0.55351 -0.5641,1.03364 0,0.53058 0.18592,0.87983 0.5641,0.87983 0.33478,0 0.46531,-0.26317 0.50235,-0.52387 h 1.20121 c 0,1.02164 -0.64276,1.46402 -1.70356,1.46402 -1.04775,0 -1.85385,-0.63817 -1.85385,-1.82668 0,-1.20191 0.78105,-1.89371 1.85385,-1.89371 0.86818,0 1.58573,0.40287 1.67887,1.44392 h -1.20756" />
      <path
         inkscape:connector-curvature="0"
         id="path1033"
         style="fill:white;fill-opacity:1;fill-rule:nonzero;stroke:none;stroke-width:0.35277775"
         d="m 334.48298,156.91929 v -4.11798 h 2.02282 c 1.46297,0 2.54247,0.61772 2.54247,1.97309 0,1.55011 -0.95214,2.14489 -2.40876,2.14489 z m 1.42769,-0.90029 h 0.37571 c 0.69356,0 1.39488,-0.36548 1.39488,-1.12783 0,-0.84102 -0.63183,-1.10561 -1.42628,-1.10561 h -0.34431 v 2.23344" />
      <path
         inkscape:connector-curvature="0"
         id="path1035"
         style="fill:white;fill-opacity:1;fill-rule:nonzero;stroke:none;stroke-width:0.35277775"
         d="m 341.18963,153.32131 c 1.19451,0 1.93076,0.73201 1.93076,1.82704 0,1.28975 -0.83961,1.89441 -1.92405,1.89441 -1.08479,0 -1.92405,-0.61806 -1.92405,-1.82033 0,-1.22273 0.7747,-1.90112 1.91734,-1.90112 z m -0.64664,1.83268 c 0,0.66322 0.26917,0.95144 0.65441,0.95144 0.40745,0 0.6544,-0.28822 0.6544,-0.95144 0,-0.51576 -0.24695,-0.90417 -0.63959,-0.88441 -0.51646,0 -0.66922,0.4893 -0.66922,0.88441" />
      <path
         inkscape:connector-curvature="0"
         id="path1037"
         style="fill:white;fill-opacity:1;fill-rule:nonzero;stroke:none;stroke-width:0.35277775"
         d="m 343.44247,153.5358 h 1.25025 v 0.30762 c 0.29457,-0.40675 0.71049,-0.40428 1.06398,-0.40428 0.81491,0 1.25659,0.52281 1.25659,1.45274 v 2.02741 h -1.26294 v -1.69792 c 0,-0.33549 -0.12771,-0.63253 -0.49742,-0.63253 -0.40076,0 -0.55739,0.26458 -0.55739,0.69709 v 1.63336 h -1.25307 v -3.38349" />
      <path
         inkscape:connector-curvature="0"
         id="path1039"
         style="fill:white;fill-opacity:1;fill-rule:nonzero;stroke:none;stroke-width:0.35277775"
         d="m 350.69523,156.92035 -1.0855,-0.001 -0.0582,-0.18521 c -0.27269,0.27305 -0.60254,0.34149 -1.14476,0.28187 -0.47378,-0.0519 -1.05128,-0.44238 -1.05128,-1.14618 0,-1.64429 2.0313,-0.80186 2.0313,-1.43192 0,-0.18697 -0.22613,-0.19156 -0.29422,-0.19156 -0.16863,0 -0.39511,0.0384 -0.42404,0.32914 h -1.08655 c 0,-0.71684 0.43391,-1.1363 1.58609,-1.1363 1.44109,0 1.52823,0.59408 1.52823,1.40089 z m -1.23719,-1.63901 c -0.387,0.20885 -0.89958,0.1076 -0.89958,0.53764 0,0.16439 0.14252,0.27834 0.3757,0.27834 0.41558,0 0.55245,-0.36054 0.52388,-0.81598" />
      <path
         inkscape:connector-curvature="0"
         id="path1041"
         style="fill: White;fill-opacity:1;fill-rule:nonzero;stroke:none;stroke-width:0.35277775"
         d="m 351.34434,152.7999 h 1.23861 v 4.11939 h -1.23861 z" />
      <path
         inkscape:connector-curvature="0"
         id="path1043"
         style="fill: White;fill-opacity:1;fill-rule:nonzero;stroke:none;stroke-width:0.35277775"
         d="m 355.43445,156.91929 v -0.2099 c -0.17004,0.27022 -0.52811,0.31573 -1.00859,0.30656 -0.98955,-0.0187 -1.49084,-0.76835 -1.49084,-1.72367 0,-1.1236 0.60748,-1.85314 1.39065,-1.85314 0.41345,0 0.77223,0.10336 1.04775,0.43885 v -1.07809 h 1.2326 v 4.11939 z m -0.0568,-1.66053 c 0,-0.39722 -0.133,-0.82902 -0.59196,-0.82902 -0.45861,0 -0.58526,0.45226 -0.58526,0.84984 0,0.37677 0.0931,0.81562 0.54539,0.81562 0.47873,0 0.63183,-0.41804 0.63183,-0.83644" />
      <path
         inkscape:connector-curvature="0"
         id="path1045"
         style="fill: White;fill-opacity:1;fill-rule:nonzero;stroke:none;stroke-width:0.35277775"
         d="m 358.84969,155.76818 c 0,0.13828 0.0529,0.3242 0.13723,0.39687 0.0783,0.0656 0.15663,0.10336 0.30692,0.10513 0.15733,0.002 0.31644,-0.0723 0.31644,-0.28928 0,-0.5849 -1.85067,-0.11218 -1.85067,-1.44921 0,-0.8823 0.83643,-1.13947 1.49189,-1.13947 0.80998,0 1.49225,0.21696 1.56422,1.13241 h -1.137 c -0.012,-0.11218 -0.054,-0.23636 -0.1203,-0.29562 -0.066,-0.0593 -0.12241,-0.0857 -0.23248,-0.0857 -0.20285,0 -0.30974,0.11747 -0.30939,0.26881 8e-4,0.58032 1.92582,0.133 1.92582,1.42381 0,0.71791 -0.54152,1.20545 -1.69686,1.20545 -0.83362,0 -1.50601,-0.34467 -1.57198,-1.27318 h 1.17616" />
      <path
         inkscape:connector-curvature="0"
         id="path1047"
         style="fill: White;fill-opacity:1;fill-rule:nonzero;stroke:none;stroke-width:0.35277775"
         d="m 356.99937,153.97465 0.15875,-1.17404 h 0.81527 l -0.34149,1.17404 h -0.63253" />
      <path
         inkscape:connector-curvature="0"
         id="path1049"
         style="fill: White;fill-opacity:1;fill-rule:nonzero;stroke:none;stroke-width:0.35277775"
         d="m 328.11569,156.91929 0.68086,-1.85984 c 0.0109,0.17921 0.38559,1.85984 0.38559,1.85984 h 1.29363 l -0.66957,-4.11692 h -1.54869 l -0.57009,1.98014 -0.66111,-1.98014 h -1.54834 l -0.66992,4.11692 h 1.20297 c 0,0 0.37465,-1.68063 0.38558,-1.85984 l 0.68087,1.85984 h 1.03822" />
    </g>
  </g>
</svg>
